<svg xmlns="http://www.w3.org/2000/svg" xmlns:xlink="http://www.w3.org/1999/xlink" width="167.72" height="156.039" viewBox="0 0 167.72 156.039">
  <defs>
    <filter id="사각형_45" x="0" y="0" width="167.72" height="156.039" filterUnits="userSpaceOnUse">
      <feOffset dy="3" input="SourceAlpha"/>
      <feGaussianBlur stdDeviation="3" result="blur"/>
      <feFlood flood-opacity="0.161"/>
      <feComposite operator="in" in2="blur"/>
      <feComposite in="SourceGraphic"/>
    </filter>
  </defs>
  <g id="그룹_426" data-name="그룹 426" transform="translate(-177 -567)">
    <g id="그룹_423" data-name="그룹 423" transform="translate(0 0.093)">
      <g transform="matrix(1, 0, 0, 1, 177, 566.91)" filter="url(#사각형_45)">
        <rect id="사각형_45-2" data-name="사각형 45" width="149.72" height="138.039" rx="12" transform="translate(9 6)" fill="#fff"/>
      </g>
    </g>
    <g id="그룹_425" data-name="그룹 425" transform="translate(0 4.256)">
      <g id="그룹_113" data-name="그룹 113" transform="translate(239 597.744)">
        <g id="그룹_114" data-name="그룹 114" transform="translate(0 19.277)">
          <g id="그룹_113-2" data-name="그룹 113">
            <path id="패스_63" data-name="패스 63" d="M15.772,234.658a.866.866,0,0,0-.192-.031,5.547,5.547,0,0,0,1.536-3.834v-4.566a.876.876,0,0,0-.01-.123c.006-.082.01-.165.01-.249v-2.889a.868.868,0,0,0-.868-.868H10.427a4.451,4.451,0,0,0-4.446,4.446v4.249a5.546,5.546,0,0,0,1.536,3.834.865.865,0,0,0-.191.031A8.07,8.07,0,0,0,0,242.683v3.708a.868.868,0,0,0,.868.868H22.23a.868.868,0,0,0,.868-.868v-3.708A8.07,8.07,0,0,0,15.772,234.658Zm-8.055-7.014v-1.1a2.713,2.713,0,0,1,2.71-2.71h4.954v2.021a1.847,1.847,0,0,1-1.845,1.845H7.717Zm0,1.792h5.818a3.558,3.558,0,0,0,1.845-.513v1.87a3.832,3.832,0,0,1-7.664,0Zm5.721,6.925-1.889,1.889L9.66,236.36Zm7.924,9.163H1.736v-1.736h3.6a.868.868,0,0,0,0-1.736H1.768a6.334,6.334,0,0,1,5.49-5.639l3.678,3.678a.868.868,0,0,0,1.227,0l3.678-3.678a6.331,6.331,0,0,1,5.522,6.27Z" transform="translate(0 -222.097)" fill="#2eb8ff"/>
          </g>
        </g>
        <g id="그룹_116" data-name="그룹 116" transform="translate(21.34)">
          <g id="그룹_115" data-name="그룹 115">
            <path id="패스_64" data-name="패스 64" d="M261.645,12.561a.869.869,0,0,0-.192-.031A5.547,5.547,0,0,0,262.989,8.7V4.129a.885.885,0,0,0-.01-.123c.006-.082.01-.165.01-.249V.868A.868.868,0,0,0,262.121,0H256.3a4.451,4.451,0,0,0-4.446,4.446V8.7a5.547,5.547,0,0,0,1.536,3.834.87.87,0,0,0-.192.031,8.07,8.07,0,0,0-7.326,8.025v3.708a.868.868,0,0,0,.868.868h6.983a.868.868,0,1,0,0-1.736h-6.116v-2.84a6.331,6.331,0,0,1,5.522-6.27l3.678,3.678a.868.868,0,0,0,1.227,0l3.678-3.678a6.331,6.331,0,0,1,5.522,6.27v2.84h-6.394a.868.868,0,0,0,0,1.736H268.1a.868.868,0,0,0,.868-.868V20.586A8.07,8.07,0,0,0,261.645,12.561Zm-4.223,3.591-1.889-1.889h3.778ZM261.253,8.7a3.832,3.832,0,0,1-7.664,0V7.338h5.818a3.559,3.559,0,0,0,1.845-.513Zm0-4.938A1.847,1.847,0,0,1,259.408,5.6h-5.818V4.446a2.713,2.713,0,0,1,2.71-2.71h4.954V3.757Z" transform="translate(-245.872)" fill="#2eb8ff"/>
          </g>
        </g>
        <g id="그룹_118" data-name="그룹 118" transform="translate(32.022 23.426)">
          <g id="그룹_117" data-name="그룹 117">
            <path id="패스_65" data-name="패스 65" d="M370.422,270.154a.868.868,0,1,0,.254.614A.874.874,0,0,0,370.422,270.154Z" transform="translate(-368.94 -269.9)" fill="#2eb8ff"/>
          </g>
        </g>
        <g id="그룹_120" data-name="그룹 120">
          <g id="그룹_119" data-name="그룹 119">
            <path id="패스_66" data-name="패스 66" d="M23.209,12.145l-3.63-3.63V4.34A4.345,4.345,0,0,0,15.24,0H4.34A4.345,4.345,0,0,0,0,4.34v7.638a4.345,4.345,0,0,0,4.34,4.34h10.9a4.315,4.315,0,0,0,4.016-2.691H22.6a.868.868,0,0,0,.614-1.482Zm-4.587-.254a.868.868,0,0,0-.846.673,2.59,2.59,0,0,1-2.537,2.017H4.34a2.607,2.607,0,0,1-2.6-2.6V4.34a2.607,2.607,0,0,1,2.6-2.6h10.9a2.607,2.607,0,0,1,2.6,2.6V8.875a.868.868,0,0,0,.254.614l2.4,2.4Z" fill="#2eb8ff"/>
          </g>
        </g>
        <g id="그룹_122" data-name="그룹 122" transform="translate(20.975 28.121)">
          <g id="그룹_121" data-name="그룹 121">
            <path id="패스_67" data-name="패스 67" d="M260.79,324h-10.9a4.315,4.315,0,0,0-4.016,2.691h-3.34a.868.868,0,0,0-.614,1.482l3.63,3.63v4.176a4.345,4.345,0,0,0,4.34,4.34h10.9a4.345,4.345,0,0,0,4.34-4.34V328.34A4.345,4.345,0,0,0,260.79,324Zm2.6,11.978a2.607,2.607,0,0,1-2.6,2.6h-10.9a2.607,2.607,0,0,1-2.6-2.6v-4.535a.868.868,0,0,0-.254-.614l-2.4-2.4h1.878a.868.868,0,0,0,.846-.673,2.59,2.59,0,0,1,2.537-2.017h10.9a2.607,2.607,0,0,1,2.6,2.6Z" transform="translate(-241.666 -324)" fill="#2eb8ff"/>
          </g>
        </g>
        <g id="그룹_124" data-name="그룹 124" transform="translate(32.461 33.716)">
          <g id="그룹_123" data-name="그룹 123">
            <path id="패스_68" data-name="패스 68" d="M380.088,388.717a.868.868,0,0,0-1.227,0l-2.307,2.307-1.073-1.073a.868.868,0,0,0-1.228,1.228l1.687,1.687a.868.868,0,0,0,1.227,0l2.921-2.921A.868.868,0,0,0,380.088,388.717Z" transform="translate(-373.999 -388.463)" fill="#2eb8ff"/>
          </g>
        </g>
        <g id="그룹_126" data-name="그룹 126" transform="translate(7.724 2.954)">
          <g id="그룹_125" data-name="그룹 125">
            <path id="패스_69" data-name="패스 69" d="M95.005,36.83a3.017,3.017,0,0,0-2.791-2.791,2.985,2.985,0,0,0-2.265.8,3.02,3.02,0,0,0-.956,2.2.868.868,0,0,0,1.736,0,1.273,1.273,0,1,1,1.553,1.243,1.458,1.458,0,0,0-1.148,1.429v.463a.868.868,0,1,0,1.736,0v-.253A2.993,2.993,0,0,0,95.005,36.83Z" transform="translate(-88.994 -34.032)" fill="#2eb8ff"/>
          </g>
        </g>
        <g id="그룹_128" data-name="그룹 128" transform="translate(9.866 11.551)">
          <g id="그룹_127" data-name="그룹 127">
            <path id="패스_70" data-name="패스 70" d="M115.152,133.344a.867.867,0,1,0,.254.614A.875.875,0,0,0,115.152,133.344Z" transform="translate(-113.67 -133.09)" fill="#2eb8ff"/>
          </g>
        </g>
        <g id="그룹_130" data-name="그룹 130" transform="translate(7.942 39.231)">
          <g id="그룹_129" data-name="그룹 129">
            <path id="패스_71" data-name="패스 71" d="M92.982,452.254a.868.868,0,1,0,.254.614A.875.875,0,0,0,92.982,452.254Z" transform="translate(-91.5 -452)" fill="#2eb8ff"/>
          </g>
        </g>
      </g>
      <path id="패스_951" data-name="패스 951" d="M-17.288,1.23V-5.824h-3.233v-.909h3.233v-5.223h1.019V1.23ZM-20.241-10.78q-.13,5.6-5.94,8.907l-.766-.827a8.9,8.9,0,0,0,2.628-1.671A9.146,9.146,0,0,0-22.23-7l-4.471.465-.362-.984,5.223-.321a7.33,7.33,0,0,0,.506-2.03h-5.072v-.909Zm9.1,4.423v-5.12h8.285v5.12Zm7.28-4.211h-6.275v3.3h6.275ZM-9.871,1.217V-3.726h-3.247v-.909H-.882v.909H-4.129V1.217H-5.154V-3.726H-8.846V1.217Zm20.692.014V-11.956h1.025V1.23Zm-1-4.17a46.789,46.789,0,0,1-7.506.308v-8.2H3.329v7.294h.9a34.149,34.149,0,0,0,5.455-.28Zm15,4.17V-11.956h1.025V1.23Zm-7.574-7.39v3.247h1.579A39.433,39.433,0,0,0,23.2-3.083l.068.882q-1.046.123-2.256.154t-4.785.031v-8.818h6.31v.923H17.247v2.871h4.73v.882Z" transform="translate(261 675.902)" fill="#5a5a5a"/>
    </g>
  </g>
</svg>
