<svg xmlns="http://www.w3.org/2000/svg" width="54.294" height="38.782" viewBox="0 0 54.294 38.782">
  <g id="그룹_245" data-name="그룹 245" transform="translate(-264.442 -433.842)">
    <g id="그룹_241" data-name="그룹 241" transform="translate(-1450.412 -300.947)">
      <path id="패스_506" data-name="패스 506" d="M1729.689,740.844a3.691,3.691,0,0,0-2.665-2.1c-1.106-.249-3.366-.307-6.075,2.093a24.937,24.937,0,0,0-4.388,5.4c-1.771,2.982-2.166,5.4-1.173,7.171a5.809,5.809,0,0,0,5.606,2.9l.338,0,.269,0Z" transform="translate(0 -2.33)" fill="#965500"/>
      <path id="패스_507" data-name="패스 507" d="M1781.617,740.844a3.691,3.691,0,0,1,2.665-2.1c1.106-.249,3.366-.307,6.075,2.093a24.93,24.93,0,0,1,4.387,5.4c1.772,2.982,2.166,5.4,1.173,7.171a5.809,5.809,0,0,1-5.606,2.9l-.338,0-.269,0-8.088-15.464" transform="translate(-40.484 -2.33)" fill="#965500"/>
      <path id="패스_508" data-name="패스 508" d="M1742.313,770.651c-2.749,0-6.791-.19-10.151-1.832a10.281,10.281,0,0,1-4.23-3.652,11.631,11.631,0,0,1-1.695-6.4,22.3,22.3,0,0,1,1.928-8.807c.364-.967.74-1.967,1.129-3.139,1-3,2.2-6.087,4.242-8.372a12.365,12.365,0,0,1,17.554,0c2.039,2.284,3.244,5.374,4.241,8.372.39,1.171.765,2.172,1.129,3.139a22.3,22.3,0,0,1,1.929,8.807,11.629,11.629,0,0,1-1.7,6.4,10.277,10.277,0,0,1-4.23,3.652c-3.359,1.642-7.4,1.832-10.151,1.832" transform="translate(-6.903 0)" fill="#efc589"/>
      <g id="그룹_226" data-name="그룹 226" transform="translate(1729.572 748.151)">
        <path id="패스_509" data-name="패스 509" d="M1752.246,770.441a1.652,1.652,0,1,1,1.651,1.673A1.663,1.663,0,0,1,1752.246,770.441Z" transform="translate(-1752.246 -768.756)" fill="#333"/>
        <path id="패스_510" data-name="패스 510" d="M1776.786,770.421a1.664,1.664,0,1,0-1.664,1.686,1.675,1.675,0,0,0,1.664-1.686" transform="translate(-1765.109 -768.736)" fill="#333"/>
      </g>
      <g id="그룹_227" data-name="그룹 227" transform="translate(1730.261 754.86)">
        <path id="패스_511" data-name="패스 511" d="M1759.146,794.133a6.111,6.111,0,0,1-5.15-5.173,2.8,2.8,0,0,1,1.785-2.724,12.682,12.682,0,0,1,6.73,0,2.8,2.8,0,0,1,1.785,2.724,6.111,6.111,0,0,1-5.15,5.173" transform="translate(-1753.996 -785.781)" fill="#3e2c27"/>
        <path id="패스_512" data-name="패스 512" d="M1763.883,812.9c.442.011.864.016,1.259.016s.816,0,1.258-.016v-8.414h-2.516V812.9" transform="translate(-1759.991 -797.123)" fill="#3e2c27"/>
      </g>
      <path id="패스_513" data-name="패스 513" d="M1783.155,758.748v0m0-.013v0m0-.011v0m0-.011v0m0-.011v0m0-.01v0m0-.01v0m0-.011v0m0-.011v0m0-.011h0m0-.01h0m3.361-6.69h0m.008-.01h0m.012-.015h0m.008-.01h0m0-.005h0m0-.005h0m0-.005h0m0,0h0m0-.006h0m0-.005h0m0-.005h0m0-.005h0m0,0h0m0-.005h0m0-.005h0m0,0,0,0,0,0m0-.005h0m0,0v0m0-.006,0,0,0,0m0-.005v0m0,0,0,0,0,0m0-.006v0m0-.005,0,0,0,0m0,0,0,0,0,0m0-.005,0,0,0,0m0,0,0,0,0,0m0-.006,0,0,0,0m0,0,0,0,0,0m0-.006v0m0-.005,0,0,0,0m0-.005,0,0,0,0m0-.006,0,0,0,0m0,0,0,0,0,0m0-.006,0,0,0,0m0-.005,0,0,0,0m0-.005,0,0,0,0m0-.006,0,0,0,0m0,0,0,0,0,0m0-.006,0,0,0,0m0,0,0,0,0,0m0-.006v0m0-.006,0,0,0,0m0,0,0,0,0,0m0-.006,0,0,0,0m0,0,0,0,0,0m0-.006,0,0,0,0m0-.006,0,0,0,0m0,0v0m0-.006,0,0,0,0m0,0,0,0,0,0m0-.006,0,0,0,0m0-.005,0,0,0,0m0-.005v0m0-.006,0,0,0,0m0,0v0m0-.006,0,0,0,0m0,0v0m0-.006,0,0,0,0m0-.006,0,0,0,0m0,0v0m0-.006,0,0,0,0m0,0v0m0-.006,0,0,0,0m0-.005,0,0,0,0m0-.006v0m0-.006v0m0-.005,0,0,0,0m0-.006h0m0-.005v0m0-.006v0m0-.006,0,0,0,0m0-.005,0,0,0,0m0-.006v0m0,0v0m0-.006v0m0-.005v0m0-.006v0m0-.006v0m0-.005v0m0-.006v0m0-.005v0m0-.006v0m0-.006v0m0-.005v0m0-.006v0m0-.005v0m0-.006,0,0,0,0m0-.005v0m0-.005v0m0-.006h0m0-.005v0m0-.006h0m0-.005h0m0-.006v0m0-.006h0m0-.005h0m0-.006h0m0-.005h0m0-.007v0m0-.005h0m0-.006v0m0-.006v0m0-.005v0m0-.006v0m0-.005h0m0-.006h0m0-.006h0m0-.005h0m0-.007h0m0-.005h0m0-.006h0m0-.005h0m0-.006h0m0-.006h0m0-.005h0m0-.006h0m.007-.012h0m0-.006h0m0-.005h0m0-.006h0m.007-.012h0m0-.006h0m0-.006h0m0-.006h0m0-.006h0m0-.006h0m0-.006h0m0-.006h0m0-.006h0m0-.006h0m0-.007h0m.008-.013v0m0-.005h0m0-.006h0m0-.007h0m0-.006h0m0-.007h0m0-.006h0m0-.007h0m0-.007h0m0-.005h0m0-.007v0m.007-.012h0m0-.007h0m0-.006h0m0-.007h0m-5.575-12.59h0m-.021-.018.011.01-.011-.01m-6.064-2.053h0m.011,0h0m.011,0h0m1.077-.116a4.9,4.9,0,0,0-1.069.115,4.9,4.9,0,0,1,1.069-.115m0,0h0m-9.336-1.512h0m-.009,0h0m-.015,0h0m-.01,0h0m-.01,0h0m-.013,0h0m-.01,0h0m-.01,0h0m-.012,0h0m-.01,0h0m-.011,0h0m-.012,0h0" transform="translate(-31.669 0)" fill="#bdbdbf"/>
    </g>
    <g id="그룹_242" data-name="그룹 242" transform="translate(279 89)">
      <g id="그룹_236" data-name="그룹 236" transform="translate(14 359)">
        <path id="패스_527" data-name="패스 527" d="M1086.794-450.625c-.483-.369-1.03-.789-1.142-1.131a3.6,3.6,0,0,1,.26-1.646c.28-.944.569-1.92.048-2.64s-1.545-.741-2.531-.766a3.544,3.544,0,0,1-1.634-.259,3.54,3.54,0,0,1-.738-1.457c-.332-.94-.674-1.913-1.535-2.19-.825-.271-1.655.3-2.457.85a3.636,3.636,0,0,1-1.521.768,3.615,3.615,0,0,1-1.515-.766c-.8-.552-1.634-1.122-2.461-.853-.859.278-1.2,1.251-1.533,2.193a3.581,3.581,0,0,1-.733,1.456,3.58,3.58,0,0,1-1.635.259c-.99.026-2.012.052-2.531.775s-.232,1.687.047,2.629a3.638,3.638,0,0,1,.262,1.654c-.111.338-.656.754-1.138,1.122-.8.611-1.628,1.243-1.628,2.161s.828,1.55,1.628,2.161c.481.367,1.027.783,1.137,1.12a3.6,3.6,0,0,1-.26,1.646c-.28.944-.569,1.92-.048,2.64s1.546.742,2.531.766a3.551,3.551,0,0,1,1.634.259,3.551,3.551,0,0,1,.739,1.462c.329.938.67,1.908,1.526,2.186.829.27,1.659-.3,2.462-.853a3.617,3.617,0,0,1,1.515-.766,3.617,3.617,0,0,1,1.515.766,3.972,3.972,0,0,0,2.023.922,1.4,1.4,0,0,0,.438-.069c.859-.277,1.2-1.251,1.533-2.192a3.59,3.59,0,0,1,.731-1.454,3.591,3.591,0,0,1,1.63-.253c.993-.024,2.02-.05,2.547-.774s.232-1.687-.047-2.629a3.632,3.632,0,0,1-.262-1.655c.112-.338.656-.753,1.137-1.12.8-.611,1.628-1.242,1.628-2.161S1087.592-450.014,1086.794-450.625Z" transform="translate(-1062.68 460.783)" fill="#00ce0e"/>
        <g id="그룹_235" data-name="그룹 235" transform="translate(7.472 8.627)">
          <g id="그룹_234" data-name="그룹 234">
            <path id="패스_528" data-name="패스 528" d="M1096.017-434.351a.639.639,0,0,0-.9,0l-5.642,5.641-2.97-2.97a.639.639,0,0,0-.9,0,.639.639,0,0,0,0,.9l3.422,3.422a.636.636,0,0,0,.452.187.637.637,0,0,0,.452-.187l6.093-6.093A.639.639,0,0,0,1096.017-434.351Z" transform="translate(-1085.412 434.538)" fill="#fff"/>
          </g>
        </g>
      </g>
    </g>
  </g>
</svg>
