<svg id="그룹_179" data-name="그룹 179" xmlns="http://www.w3.org/2000/svg" width="180.627" height="180.627" viewBox="0 0 180.627 180.627">
  <ellipse id="타원_31" data-name="타원 31" cx="90.314" cy="90.314" rx="90.314" ry="90.314" transform="translate(0 0)" fill="#ecf0f1"/>
  <ellipse id="타원_32" data-name="타원 32" cx="90.314" cy="90.314" rx="90.314" ry="90.314" transform="translate(0 0)" fill="#a7e1ff"/>
  <path id="패스_72" data-name="패스 72" d="M-16.168,792.471-18.622,804.8l-8.222,2.829,4.866,76.764,31.285-.177,1.462-78.037-5.251-1.652L2.842,791.948l-19.009.523Z" transform="translate(96.796 -708.285)" fill="#f0ba7d"/>
  <path id="패스_73" data-name="패스 73" d="M-28.113,819.685c13.689,6.637,27.77,8.031,42.593.376l-.5,57.294a90.727,90.727,0,0,1-19.86,2.195,90.446,90.446,0,0,1-22.73-2.886Z" transform="translate(96.198 -698.923)" fill="#21d0c3"/>
  <path id="패스_74" data-name="패스 74" d="M3.218,802.056l23.846,6.5c6.182,1.909,11.708,5.566,11.884,12.136l1.308,48.561a90.142,90.142,0,0,1-17.525,9.555l-1.522-26.855-4.176,28.965a90.137,90.137,0,0,1-28.456,4.58c-.259,0-.516-.008-.776-.009l-.009-24.62Z" transform="translate(101.736 -704.873)" fill="#eef3f7"/>
  <g id="그룹_131" data-name="그룹 131" transform="translate(38.793 96.936)">
    <path id="패스_75" data-name="패스 75" d="M2.991,801.93,6.133,803.2l10.719,16.091-12.564-.2,7.787,4.168-24.283,37.659,15.2-58.984Z" transform="translate(62.943 -801.852)" fill="#fff"/>
    <path id="패스_76" data-name="패스 76" d="M-11.876,801.872l-23.957,6.082c-6.216,1.8-11.8,5.358-12.1,11.924l-2.21,49.551a90.208,90.208,0,0,0,17.355,9.44l2.04-27.422L-27.014,881a90.131,90.131,0,0,0,27.619,4.55l-.011-24.62-12.47-59.061Z" transform="translate(50.139 -801.872)" fill="#fff"/>
  </g>
  <path id="패스_77" data-name="패스 77" d="M-17.785,801.749l-3.746,1.435L-31.95,818.86l12.566.02-7.859,4.029,21.7,38.066-12.241-59.226Z" transform="translate(95.072 -704.977)" fill="#eef3f7"/>
  <path id="패스_78" data-name="패스 78" d="M-30.963,775.7c-.4,4.041.408,13.014,5.311,12.673,0,0,7.056,20.566,20.641,22.895,11.729-2.144,18.864-20.769,19.405-22.542,1.616.551,6.138-6.97,2.671-13.124-.994-1.764-3.808-.336-3.808-.336l-.217-5.137c-18.534,1.8-30.091-16.127-30.091-16.127-7.066,7.686-8.765,12.073-9.521,21.631a6.287,6.287,0,0,0-2.8-.855,2.746,2.746,0,0,0-1.593.922Z" transform="translate(95.375 -721.093)" fill="#fed298"/>
  <path id="패스_79" data-name="패스 79" d="M-15.718,820.814l2.4-12.055C-20.272,801.91-23.9,791.583-23.9,791.583c-4.739.528-6.641-12.531-3.454-12.988a4.64,4.64,0,0,1,2.434.248c.718-10.092,2.662-13.162,9.35-21.63,0,0,11.685,19.657,30.2,17.856l.265,4.239c.876-.861,2.477-1.671,3.811.523,2.17,3.569-.669,11.678-3.3,12.173-.372,1.251-3.3,10.477-9.49,16.8l2.5,11.738c6.95,2.251,13.651,3.989,20.376,5.777-3.416-20.828-5.374-43.366-9.454-62.606-3.915-18.461-25.319-23.624-37.625-15.426,0,0-10.613,4.276-12.55,18.458s-1.2,15.548-1.2,15.548l-3.42,43.668c6.341-1.61,13.683-3.067,19.73-5.147Z" transform="translate(93.891 -724.298)" fill="#666"/>
  <path id="패스_80" data-name="패스 80" d="M14.141,843.135a6.476,6.476,0,1,1,7.484-5.279A6.478,6.478,0,0,1,14.141,843.135Z" transform="translate(108.816 -695.348)" fill="#fefefe"/>
  <path id="패스_81" data-name="패스 81" d="M14.11,842.668a6.1,6.1,0,1,1,7.048-4.972A6.1,6.1,0,0,1,14.11,842.668Z" transform="translate(108.911 -695.252)" fill="#0f7986"/>
  <path id="패스_82" data-name="패스 82" d="M13.885,839.3a3.375,3.375,0,1,1,3.9-2.751,3.377,3.377,0,0,1-3.9,2.751Z" transform="translate(109.599 -694.565)" fill="#ebecec"/>
  <path id="패스_83" data-name="패스 83" d="M13.475,834.068l1.483.257.8-4.619-1.483-.255-.8,4.617Z" transform="translate(110.406 -695.626)" fill="#fefefe"/>
  <path id="패스_84" data-name="패스 84" d="M-16.465,849.023l2.778-.551a4.362,4.362,0,0,0,2.782-1.863,4.36,4.36,0,0,0,.658-3.282l-3.268-16.464c-1.233-6.212-6.093-9.38-11.647-10.083a20.548,20.548,0,0,0-6.521.257,20.439,20.439,0,0,0-6.123,2.251c-4.851,2.763-8.122,7.541-6.887,13.765l3.268,16.464a4.368,4.368,0,0,0,1.863,2.781h0a4.355,4.355,0,0,0,3.28.659l2.778-.552-.227-1.144-2.778.551a3.21,3.21,0,0,1-2.408-.483h0a3.213,3.213,0,0,1-1.367-2.04l-3.268-16.464c-1.121-5.646,1.875-10,6.316-12.525a19.293,19.293,0,0,1,5.776-2.123,19.377,19.377,0,0,1,6.151-.243c5.083.642,9.527,3.522,10.646,9.157l3.269,16.464a3.208,3.208,0,0,1-.484,2.406,3.2,3.2,0,0,1-2.04,1.366l-2.779.551.229,1.145Z" transform="translate(90.682 -699.954)" fill="#21d0c3"/>
  <path id="패스_85" data-name="패스 85" d="M-12.535,829.4l-.5-2.516c-1.272-6.406-6.272-9.669-11.982-10.391a20.894,20.894,0,0,0-6.644.261,20.876,20.876,0,0,0-6.238,2.292c-4.99,2.842-8.352,7.762-7.078,14.178l.5,2.516,1.906-.38-.5-2.515c-1.082-5.453,1.823-9.664,6.126-12.114a18.964,18.964,0,0,1,5.661-2.079,18.957,18.957,0,0,1,6.028-.238c4.926.622,9.232,3.405,10.313,8.848l.5,2.515,1.907-.377Z" transform="translate(90.584 -700.052)" fill="#4d4d4d"/>
  <g id="그룹_132" data-name="그룹 132" transform="translate(54.657 147.213)">
    <path id="패스_86" data-name="패스 86" d="M-37.959,844.651l1.487-.3a1.631,1.631,0,0,0,1.538.518,1.634,1.634,0,0,0,1.284-1.919,1.631,1.631,0,0,0-1.919-1.283,1.627,1.627,0,0,0-1.224,1.066l-1.486.294Z" transform="translate(38.279 -838.725)" fill="#076673"/>
    <path id="패스_87" data-name="패스 87" d="M-21.6,841.332l-1.486.3a1.635,1.635,0,0,1-1.224,1.066,1.634,1.634,0,0,1-1.919-1.284,1.633,1.633,0,0,1,1.284-1.918,1.63,1.63,0,0,1,1.538.516l1.486-.294.321,1.618Z" transform="translate(42.337 -839.46)" fill="#076673"/>
  </g>
  <path id="패스_88" data-name="패스 88" d="M-33.7,817.259l-.567-2.856-1.128.225-1.125.222.574,2.885c.429-.126.864-.233,1.3-.318C-34.332,817.354-34.016,817.3-33.7,817.259Z" transform="translate(93.53 -700.706)" fill="#666"/>
  <g id="그룹_133" data-name="그룹 133" transform="translate(56.807 147.65)">
    <path id="패스_89" data-name="패스 89" d="M-36.081,842.949a.492.492,0,0,0,.388-.579.492.492,0,0,0-.581-.389.493.493,0,0,0-.388.58.493.493,0,0,0,.581.388Z" transform="translate(36.671 -839.05)" fill="#0f7986"/>
    <path id="패스_90" data-name="패스 90" d="M-25.1,840.765a.492.492,0,0,0,.388-.579.493.493,0,0,0-.58-.389.493.493,0,0,0-.388.581A.493.493,0,0,0-25.1,840.765Z" transform="translate(40.38 -839.787)" fill="#0f7986"/>
  </g>
  <path id="패스_91" data-name="패스 91" d="M13.711,839.181a3.191,3.191,0,1,1,3.688-2.6A3.192,3.192,0,0,1,13.711,839.181Z" transform="translate(109.591 -694.48)" fill="#fefefe"/>
  <g id="그룹_134" data-name="그룹 134" transform="translate(56.936 96.617)">
    <path id="패스_92" data-name="패스 92" d="M-19.933,803.29c-.049,0-17.59.146-14.627,15.491l-1.63.312c-3.34-17.3,16.183-17.459,16.239-17.46l.019,1.657Z" transform="translate(36.575 -801.633)" fill="#4d4d4d"/>
    <path id="패스_93" data-name="패스 93" d="M2.045,801.692A16.606,16.606,0,0,1,14.7,807.728c4.166,5.069,7.088,14.377,4.9,31.443l-1.645-.207c2.115-16.519-.618-25.412-4.538-30.183a14.975,14.975,0,0,0-11.411-5.432l.039-1.657Z" transform="translate(49.599 -801.613)" fill="#4d4d4d"/>
  </g>
</svg>
