<svg xmlns="http://www.w3.org/2000/svg" width="54.273" height="38.782" viewBox="0 0 54.273 38.782">
  <g id="그룹_244" data-name="그룹 244" transform="translate(-159.442 -433.842)">
    <g id="그룹_240" data-name="그룹 240" transform="translate(-1555.412 -300.947)">
      <path id="패스_506" data-name="패스 506" d="M1729.689,740.844a3.691,3.691,0,0,0-2.665-2.1c-1.106-.249-3.366-.307-6.075,2.093a24.937,24.937,0,0,0-4.388,5.4c-1.771,2.982-2.166,5.4-1.173,7.171a5.809,5.809,0,0,0,5.606,2.9l.338,0,.269,0Z" transform="translate(0 -2.33)" fill="#965500"/>
      <path id="패스_507" data-name="패스 507" d="M1781.617,740.844a3.691,3.691,0,0,1,2.665-2.1c1.106-.249,3.366-.307,6.075,2.093a24.93,24.93,0,0,1,4.387,5.4c1.772,2.982,2.166,5.4,1.173,7.171a5.809,5.809,0,0,1-5.606,2.9l-.338,0-.269,0-8.088-15.464" transform="translate(-40.484 -2.33)" fill="#965500"/>
      <path id="패스_508" data-name="패스 508" d="M1742.313,770.651c-2.749,0-6.791-.19-10.151-1.832a10.281,10.281,0,0,1-4.23-3.652,11.631,11.631,0,0,1-1.695-6.4,22.3,22.3,0,0,1,1.928-8.807c.364-.967.74-1.967,1.129-3.139,1-3,2.2-6.087,4.242-8.372a12.365,12.365,0,0,1,17.554,0c2.039,2.284,3.244,5.374,4.241,8.372.39,1.171.765,2.172,1.129,3.139a22.3,22.3,0,0,1,1.929,8.807,11.629,11.629,0,0,1-1.7,6.4,10.277,10.277,0,0,1-4.23,3.652c-3.359,1.642-7.4,1.832-10.151,1.832" transform="translate(-6.903 0)" fill="#efc589"/>
      <g id="그룹_226" data-name="그룹 226" transform="translate(1729.572 748.151)">
        <path id="패스_509" data-name="패스 509" d="M1752.246,770.441a1.652,1.652,0,1,1,1.651,1.673A1.663,1.663,0,0,1,1752.246,770.441Z" transform="translate(-1752.246 -768.756)" fill="#333"/>
        <path id="패스_510" data-name="패스 510" d="M1776.786,770.421a1.664,1.664,0,1,0-1.664,1.686,1.675,1.675,0,0,0,1.664-1.686" transform="translate(-1765.109 -768.736)" fill="#333"/>
      </g>
      <g id="그룹_227" data-name="그룹 227" transform="translate(1730.261 754.86)">
        <path id="패스_511" data-name="패스 511" d="M1759.146,794.133a6.111,6.111,0,0,1-5.15-5.173,2.8,2.8,0,0,1,1.785-2.724,12.682,12.682,0,0,1,6.73,0,2.8,2.8,0,0,1,1.785,2.724,6.111,6.111,0,0,1-5.15,5.173" transform="translate(-1753.996 -785.781)" fill="#3e2c27"/>
        <path id="패스_512" data-name="패스 512" d="M1763.883,812.9c.442.011.864.016,1.259.016s.816,0,1.258-.016v-8.414h-2.516V812.9" transform="translate(-1759.991 -797.123)" fill="#3e2c27"/>
      </g>
      <path id="패스_513" data-name="패스 513" d="M1783.155,758.748v0m0-.013v0m0-.011v0m0-.011v0m0-.011v0m0-.01v0m0-.01v0m0-.011v0m0-.011v0m0-.011h0m0-.01h0m3.361-6.69h0m.008-.01h0m.012-.015h0m.008-.01h0m0-.005h0m0-.005h0m0-.005h0m0,0h0m0-.006h0m0-.005h0m0-.005h0m0-.005h0m0,0h0m0-.005h0m0-.005h0m0,0,0,0,0,0m0-.005h0m0,0v0m0-.006,0,0,0,0m0-.005v0m0,0,0,0,0,0m0-.006v0m0-.005,0,0,0,0m0,0,0,0,0,0m0-.005,0,0,0,0m0,0,0,0,0,0m0-.006,0,0,0,0m0,0,0,0,0,0m0-.006v0m0-.005,0,0,0,0m0-.005,0,0,0,0m0-.006,0,0,0,0m0,0,0,0,0,0m0-.006,0,0,0,0m0-.005,0,0,0,0m0-.005,0,0,0,0m0-.006,0,0,0,0m0,0,0,0,0,0m0-.006,0,0,0,0m0,0,0,0,0,0m0-.006v0m0-.006,0,0,0,0m0,0,0,0,0,0m0-.006,0,0,0,0m0,0,0,0,0,0m0-.006,0,0,0,0m0-.006,0,0,0,0m0,0v0m0-.006,0,0,0,0m0,0,0,0,0,0m0-.006,0,0,0,0m0-.005,0,0,0,0m0-.005v0m0-.006,0,0,0,0m0,0v0m0-.006,0,0,0,0m0,0v0m0-.006,0,0,0,0m0-.006,0,0,0,0m0,0v0m0-.006,0,0,0,0m0,0v0m0-.006,0,0,0,0m0-.005,0,0,0,0m0-.006v0m0-.006v0m0-.005,0,0,0,0m0-.006h0m0-.005v0m0-.006v0m0-.006,0,0,0,0m0-.005,0,0,0,0m0-.006v0m0,0v0m0-.006v0m0-.005v0m0-.006v0m0-.006v0m0-.005v0m0-.006v0m0-.005v0m0-.006v0m0-.006v0m0-.005v0m0-.006v0m0-.005v0m0-.006,0,0,0,0m0-.005v0m0-.005v0m0-.006h0m0-.005v0m0-.006h0m0-.005h0m0-.006v0m0-.006h0m0-.005h0m0-.006h0m0-.005h0m0-.007v0m0-.005h0m0-.006v0m0-.006v0m0-.005v0m0-.006v0m0-.005h0m0-.006h0m0-.006h0m0-.005h0m0-.007h0m0-.005h0m0-.006h0m0-.005h0m0-.006h0m0-.006h0m0-.005h0m0-.006h0m.007-.012h0m0-.006h0m0-.005h0m0-.006h0m.007-.012h0m0-.006h0m0-.006h0m0-.006h0m0-.006h0m0-.006h0m0-.006h0m0-.006h0m0-.006h0m0-.006h0m0-.007h0m.008-.013v0m0-.005h0m0-.006h0m0-.007h0m0-.006h0m0-.007h0m0-.006h0m0-.007h0m0-.007h0m0-.005h0m0-.007v0m.007-.012h0m0-.007h0m0-.006h0m0-.007h0m-5.575-12.59h0m-.021-.018.011.01-.011-.01m-6.064-2.053h0m.011,0h0m.011,0h0m1.077-.116a4.9,4.9,0,0,0-1.069.115,4.9,4.9,0,0,1,1.069-.115m0,0h0m-9.336-1.512h0m-.009,0h0m-.015,0h0m-.01,0h0m-.01,0h0m-.013,0h0m-.01,0h0m-.01,0h0m-.012,0h0m-.01,0h0m-.011,0h0m-.012,0h0" transform="translate(-31.669 0)" fill="#bdbdbf"/>
    </g>
    <g id="그룹_238" data-name="그룹 238" transform="translate(144 88.652)">
      <g id="그룹_233" data-name="그룹 233" transform="translate(43.979 359.348)">
        <path id="패스_518" data-name="패스 518" d="M1178-449.566c-.483-.369-1.03-.789-1.141-1.131a3.6,3.6,0,0,1,.26-1.646c.28-.944.57-1.92.048-2.64s-1.545-.742-2.531-.766a3.544,3.544,0,0,1-1.634-.259,3.546,3.546,0,0,1-.738-1.457c-.331-.94-.674-1.913-1.535-2.19-.825-.271-1.654.3-2.457.85a3.636,3.636,0,0,1-1.521.768,3.615,3.615,0,0,1-1.515-.766c-.8-.552-1.634-1.122-2.461-.853-.859.278-1.2,1.251-1.533,2.192a3.577,3.577,0,0,1-.733,1.456,3.581,3.581,0,0,1-1.635.259c-.989.026-2.012.053-2.531.775s-.232,1.687.047,2.629a3.633,3.633,0,0,1,.262,1.654c-.111.338-.656.754-1.137,1.122-.8.611-1.628,1.243-1.628,2.161s.827,1.55,1.628,2.161c.481.368,1.026.783,1.136,1.12a3.6,3.6,0,0,1-.26,1.646c-.28.944-.569,1.92-.048,2.64s1.545.742,2.531.766a3.551,3.551,0,0,1,1.635.259,3.545,3.545,0,0,1,.738,1.462c.329.938.67,1.908,1.526,2.186.829.27,1.659-.3,2.462-.853a3.616,3.616,0,0,1,1.515-.766,3.619,3.619,0,0,1,1.515.766,3.972,3.972,0,0,0,2.023.922,1.4,1.4,0,0,0,.438-.069c.859-.277,1.2-1.251,1.533-2.192a3.586,3.586,0,0,1,.731-1.454,3.591,3.591,0,0,1,1.63-.253c.993-.024,2.02-.05,2.547-.774s.232-1.687-.047-2.629a3.626,3.626,0,0,1-.261-1.655c.112-.338.656-.753,1.136-1.12.8-.611,1.628-1.243,1.628-2.161S1178.795-448.956,1178-449.566Z" transform="translate(-1153.883 459.724)" fill="#ff4d4d"/>
        <g id="그룹_232" data-name="그룹 232" transform="translate(6.633 6.123)">
          <g id="Layer_2" data-name="Layer 2">
            <g id="그룹_231" data-name="그룹 231">
              <path id="패스_519" data-name="패스 519" d="M1195.389-406.712c-.1.026-.208.048-.312.067a.5.5,0,0,0-.4.584.5.5,0,0,0,.2.319.5.5,0,0,0,.38.083c.124-.023.249-.05.371-.081a.5.5,0,0,0,.365-.607A.5.5,0,0,0,1195.389-406.712Z" transform="translate(-1187.894 418.025)" fill="#fff"/>
              <path id="패스_520" data-name="패스 520" d="M1207.845-429.14a.5.5,0,0,0,.187.252.5.5,0,0,0,.447.066.5.5,0,0,0,.318-.633c-.039-.12-.083-.24-.13-.357a.5.5,0,0,0-.651-.279.5.5,0,0,0-.279.652C1207.774-429.342,1207.811-429.241,1207.845-429.14Z" transform="translate(-1196.642 433.734)" fill="#fff"/>
              <path id="패스_521" data-name="패스 521" d="M1200.752-409.029c-.088.059-.18.115-.271.168a.5.5,0,0,0-.184.685.5.5,0,0,0,.145.159.5.5,0,0,0,.54.024c.109-.063.218-.13.323-.2a.5.5,0,0,0,.142-.695A.5.5,0,0,0,1200.752-409.029Z" transform="translate(-1191.628 419.626)" fill="#fff"/>
              <path id="패스_522" data-name="패스 522" d="M1209.939-423.848a.5.5,0,0,0-.521-.481.5.5,0,0,0-.481.521c0,.106.005.213,0,.319a.5.5,0,0,0,.213.421.5.5,0,0,0,.277.091.5.5,0,0,0,.512-.49C1209.945-423.594,1209.944-423.721,1209.939-423.848Z" transform="translate(-1197.473 429.841)" fill="#fff"/>
              <path id="패스_523" data-name="패스 523" d="M1205.808-413.076a.5.5,0,0,0-.7.1c-.063.085-.13.169-.2.249a.5.5,0,0,0,.057.707l.037.028a.5.5,0,0,0,.67-.085c.082-.1.162-.2.238-.3A.5.5,0,0,0,1205.808-413.076Z" transform="translate(-1194.688 422.354)" fill="#fff"/>
              <path id="패스_524" data-name="패스 524" d="M1208.57-418.431a.5.5,0,0,0-.629.328c-.031.1-.067.2-.1.3a.5.5,0,0,0,.179.588.493.493,0,0,0,.111.059.5.5,0,0,0,.647-.29c.045-.118.087-.239.125-.359A.5.5,0,0,0,1208.57-418.431Z" transform="translate(-1196.713 425.897)" fill="#fff"/>
              <path id="패스_525" data-name="패스 525" d="M1179.37-429.713a5.184,5.184,0,0,1-1.286-.409l-.015-.008c-.1-.045-.192-.093-.285-.144h0a5.383,5.383,0,0,1-.5-.312,5.237,5.237,0,0,1-1.264-7.289,5.21,5.21,0,0,1,1.286-1.279l.018-.012a5.24,5.24,0,0,1,5.873-.047l-.392.566c-.109.157-.042.272.149.255l1.7-.152a.28.28,0,0,0,.253-.367l-.457-1.646c-.051-.184-.182-.206-.291-.049l-.393.567a6.191,6.191,0,0,0-4.537-.964c-.161.028-.318.062-.475.1h0l-.018,0a6.18,6.18,0,0,0-3.428,2.3c-.007.009-.015.017-.022.026-.028.038-.057.077-.084.117-.045.064-.09.13-.132.2-.005.008-.01.016-.014.024a6.179,6.179,0,0,0-.988,3.645v.013c.006.126.016.253.029.379a.183.183,0,0,0,0,.024q.021.189.053.379a6.19,6.19,0,0,0,1.745,3.355l.006.007,0,0a6.343,6.343,0,0,0,.8.667,6.181,6.181,0,0,0,2.486,1.04.5.5,0,0,0,.582-.4A.5.5,0,0,0,1179.37-429.713Z" transform="translate(-1174.062 441.098)" fill="#fff"/>
              <path id="패스_526" data-name="패스 526" d="M1191.267-434.451a.406.406,0,0,0-.406.406V-430l3.7,1.91a.4.4,0,0,0,.186.045.405.405,0,0,0,.361-.22.405.405,0,0,0-.174-.546l-3.257-1.684v-3.547A.405.405,0,0,0,1191.267-434.451Z" transform="translate(-1185.339 436.636)" fill="#fff"/>
            </g>
          </g>
        </g>
      </g>
    </g>
  </g>
</svg>
